<svg xmlns="http://www.w3.org/2000/svg">
    <symbol id="vk" viewBox="0 0 24 24">
        <g>
            <path class="st0" d="M13.162 18.994c.609 0 .858-.406.851-.915-.031-1.917.714-2.949 2.059-1.604 1.488 1.488 1.796 2.519 3.603 2.519h3.2c.808 0 1.126-.26 1.126-.668 0-.863-1.421-2.386-2.625-3.504-1.686-1.565-1.765-1.602-.313-3.486 1.801-2.339 4.157-5.336 2.073-5.336h-3.981c-.772 0-.828.435-1.103 1.083-.995 2.347-2.886 5.387-3.604 4.922-.751-.485-.407-2.406-.35-5.261.015-.754.011-1.271-1.141-1.539-.629-.145-1.241-.205-1.809-.205-2.273 0-3.841.953-2.95 1.119 1.571.293 1.42 3.692 1.054 5.16-.638 2.556-3.036-2.024-4.035-4.305-.241-.548-.315-.974-1.175-.974h-3.255c-.492 0-.787.16-.787.516 0 .602 2.96 6.72 5.786 9.77 2.756 2.975 5.48 2.708 7.376 2.708z"/>
        </g>
    </symbol>

    <symbol id="inst" viewBox="0 0 24 24">
        <g>
            <path d="M12 2.163c3.204 0 3.584.012 4.85.07 3.252.148 4.771 1.691 4.919 4.919.058 1.265.069 1.645.069 4.849 0 3.205-.012 3.584-.069 4.849-.149 3.225-1.664 4.771-4.919 4.919-1.266.058-1.644.07-4.85.07-3.204 0-3.584-.012-4.849-.07-3.26-.149-4.771-1.699-4.919-4.92-.058-1.265-.07-1.644-.07-4.849 0-3.204.013-3.583.07-4.849.149-3.227 1.664-4.771 4.919-4.919 1.266-.057 1.645-.069 4.849-.069zm0-2.163c-3.259 0-3.667.014-4.947.072-4.358.2-6.78 2.618-6.98 6.98-.059 1.281-.073 1.689-.073 4.948 0 3.259.014 3.668.072 4.948.2 4.358 2.618 6.78 6.98 6.98 1.281.058 1.689.072 4.948.072 3.259 0 3.668-.014 4.948-.072 4.354-.2 6.782-2.618 6.979-6.98.059-1.28.073-1.689.073-4.948 0-3.259-.014-3.667-.072-4.947-.196-4.354-2.617-6.78-6.979-6.98-1.281-.059-1.69-.073-4.949-.073zm0 5.838c-3.403 0-6.162 2.759-6.162 6.162s2.759 6.163 6.162 6.163 6.162-2.759 6.162-6.163c0-3.403-2.759-6.162-6.162-6.162zm0 10.162c-2.209 0-4-1.79-4-4 0-2.209 1.791-4 4-4s4 1.791 4 4c0 2.21-1.791 4-4 4zm6.406-11.845c-.796 0-1.441.645-1.441 1.44s.645 1.44 1.441 1.44c.795 0 1.439-.645 1.439-1.44s-.644-1.44-1.439-1.44z"/>
        </g>
    </symbol>

    <symbol id="git" viewBox="0 0 24 24">
        <g>
            <path d="M12 0c-6.626 0-12 5.373-12 12 0 5.302 3.438 9.8 8.207 11.387.599.111.793-.261.793-.577v-2.234c-3.338.726-4.033-1.416-4.033-1.416-.546-1.387-1.333-1.756-1.333-1.756-1.089-.745.083-.729.083-.729 1.205.084 1.839 1.237 1.839 1.237 1.07 1.834 2.807 1.304 3.492.997.107-.775.418-1.305.762-1.604-2.665-.305-5.467-1.334-5.467-5.931 0-1.311.469-2.381 1.236-3.221-.124-.303-.535-1.524.117-3.176 0 0 1.008-.322 3.301 1.23.957-.266 1.983-.399 3.003-.404 1.02.005 2.047.138 3.006.404 2.291-1.552 3.297-1.23 3.297-1.23.653 1.653.242 2.874.118 3.176.77.84 1.235 1.911 1.235 3.221 0 4.609-2.807 5.624-5.479 5.921.43.372.823 1.102.823 2.222v3.293c0 .319.192.694.801.576 4.765-1.589 8.199-6.086 8.199-11.386 0-6.627-5.373-12-12-12z"/>
        </g>
    </symbol>

    <symbol id="time" viewBox="0 0 489.42 489.42">
        <g>
            <path d="M46.1,138.368c4.2,2.1,16.1,8.4,29.1-6.2c5.2-7.3,10.4-14.6,16.6-21.8c7.3-8.3,6.2-21.8-2.1-29.1
			c-8.3-7.3-21.8-6.2-29.1,2.1s-14.6,17.7-20.8,27C33.7,119.668,36.8,132.068,46.1,138.368z"/>
		    <path d="M249,40.568c19.8,0,39.5,3.1,58.3,9.4c12.6,3.7,21.8-4.2,26-12.5c3.1-11.4-3.1-22.9-13.5-26
                c-22.9-7.3-45.8-11.4-69.7-11.4c-11.4,0-20.8,8.3-20.8,19.8S237.6,40.568,249,40.568z"/>
            <path d="M434.2,167.468c7.3,17.7,11.4,36.4,13.5,55.1c0,0,1.2,23.2,22.9,19.8c21.5-2.8,18.7-23.9,18.7-23.9
                c-2.1-22.9-8.3-45.8-16.6-66.6c-5.2-10.4-16.6-15.6-27-11.4C435.2,145.668,430,157.068,434.2,167.468z"/>
            <path d="M359.3,75.968c16.6,11.4,31.2,25,43.7,40.6c9.3,11.6,25,6.8,28.1,3.1c8.3-7.3,10.4-20.8,3.1-29.1
                c-14.6-17.7-32.3-34.3-52-47.9c-9.4-6.2-21.8-4.2-28.1,5.2S349.9,69.668,359.3,75.968z"/>
            <path d="M134.6,72.768c16.6-10.4,35.4-18.7,54.1-23.9c11.4-3.1,17.7-14.6,14.6-25c-3.1-11.4-14.6-17.7-25-14.6
                c-22.9,6.2-44.7,15.6-64.5,28.1c-9.4,6.2-12.5,18.7-6.2,28.1C111.7,71.768,120.5,77.968,134.6,72.768z"/>
            <path d="M468.5,268.368c-11.4-3.1-21.8,4.2-23.9,15.6c-2.1,9.4-8.5,31.3-8.6,33.4c-27.5,71.5-93.5,121.8-169.3,129.9
                c-74.6,7.8-147.2-25.9-189.3-86.5l38.5,8.5c10.4,2.1,21.8-4.2,23.9-15.6c2.1-10.4-4.2-21.8-15.6-23.9l-81.1-17.7
                c-5.2-1-21.4,0-25,15.6l-17.7,82.2c-2.1,10.4,4.2,21.8,15.6,23.9c12.7,1.3,21.8-6.2,25-16.6l6.2-28.2
                c46.3,62.7,129.9,109.1,223.7,99c94.6-10.2,174.8-73.9,206-163.3c1-2.6,5.7-24.4,7.3-32.3
                C487.3,280.868,480,270.468,468.5,268.368z"/>
            <path d="M164.6,265.268h95.9c11.4,0,19.8-9.4,20.8-20.8v-142.2c0-11.4-9.4-20.8-20.8-20.8c-11.4,0-20.8,9.4-20.8,20.8v121.4h-75.1
			c-11.4,0-20.8,9.4-20.8,20.8S153.1,265.268,164.6,265.268z"/>
        </g>
    </symbol>

    <symbol id="quality" viewBox="0 0 470 470">
        <g>
            <path d="m429.591,418.378l-62.223-150.218c-1.585-3.826-5.972-5.645-9.799-4.059s-5.645,5.973-4.059,9.799l56.251,135.801-51.309-14.867c-3.368-0.977-6.965,0.513-8.656,3.586l-25.769,46.793-60.357-145.716c69.663-13.434 122.447-74.853 122.447-148.378 0.001-83.327-67.79-151.119-151.117-151.119s-151.119,67.792-151.119,151.119c0,33.751 11.124,64.951 29.896,90.133l-73.368,177.126c-1.103,2.664-0.582,5.724 1.341,7.872 1.922,2.148 4.907,3.004 7.676,2.202l60.533-17.541 30.4,55.207c1.324,2.403 3.847,3.882 6.568,3.882 0.138,0 0.277-0.004 0.416-0.011 2.879-0.16 5.411-1.955 6.515-4.619l58.136-140.353c1.585-3.827-0.232-8.214-4.059-9.799-3.827-1.585-8.214,0.232-9.799,4.059l-52.165,125.936-25.767-46.793c-1.692-3.073-5.291-4.563-8.657-3.586l-51.308,14.867 64.397-155.469c27.598,29.52 66.86,48.005 110.364,48.005 4.491,0 8.933-0.209 13.325-0.594l67.818,163.727c1.103,2.664 3.636,4.459 6.514,4.618 0.14,0.008 0.278,0.012 0.417,0.012 2.721,0 5.244-1.479 6.567-3.882l30.401-55.207 60.533,17.541c2.771,0.803 5.753-0.054 7.676-2.202 1.923-2.148 2.443-5.208 1.34-7.872zm-330.71-267.259c2.84217e-14-75.056 61.063-136.119 136.119-136.119 75.056,0 136.118,61.063 136.118,136.119s-61.062,136.118-136.118,136.118c-75.056,0-136.119-61.062-136.119-136.118z"/>
            <path d="m321.659,122.961c-0.863-2.658-3.135-4.616-5.892-5.079l-50.467-8.469-23.649-45.379c-1.292-2.479-3.855-4.034-6.651-4.034-2.795,0-5.359,1.555-6.651,4.034l-23.65,45.379-50.466,8.469c-2.757,0.462-5.028,2.42-5.892,5.079-0.864,2.659-0.178,5.577 1.781,7.572l35.85,36.515-7.54,50.614c-0.412,2.765 0.748,5.529 3.01,7.173 2.26,1.642 5.249,1.891 7.751,0.646l45.807-22.812 45.806,22.812c1.059,0.527 2.203,0.787 3.343,0.787 1.557,0 3.104-0.484 4.409-1.432 2.262-1.644 3.422-4.408 3.01-7.173l-7.539-50.614 35.85-36.516c1.958-1.995 2.644-4.913 1.78-7.572zm-50.951,36.244c-1.648,1.679-2.413,4.033-2.066,6.359l5.97,40.074-36.268-18.061c-1.054-0.524-2.198-0.787-3.344-0.787-1.145,0-2.291,0.262-3.343,0.787l-36.268,18.061 5.97-40.074c0.347-2.326-0.418-4.681-2.066-6.359l-28.385-28.912 39.957-6.706c2.32-0.389 4.323-1.844 5.41-3.93l18.725-35.929 18.725,35.93c1.088,2.086 3.09,3.541 5.41,3.93l39.958,6.706-28.385,28.911z"/>
            <path d="m348.612,158.684c-4.107-0.549-7.877,2.343-8.42,6.45-6.957,52.507-52.18,92.104-105.192,92.104-58.514,0-106.119-47.604-106.119-106.119s47.605-106.119 106.119-106.119c53.013,0 98.235,39.596 105.192,92.104 0.543,4.107 4.32,7.001 8.42,6.45 4.105-0.544 6.994-4.314 6.449-8.42-7.94-59.936-59.555-105.134-120.061-105.134-66.785,0-121.119,54.333-121.119,121.119s54.334,121.118 121.119,121.118c60.506,0 112.121-45.198 120.062-105.134 0.544-4.105-2.344-7.875-6.45-8.419z"/>
        </g>
    </symbol>

    <symbol id="dream" viewBox="0 0 351.621 351.621">
        <g>
            <path d="M241.854,234.511c4.241-0.885,8.633-1.354,13.133-1.354c5.638,0,11.106,0.736,16.32,2.107V29.241c0-3.86-3.131-6.991-6.992-6.991h-58.709v17.399h36.248V234.511z"/>
            <path d="M71.854,316.331V39.649h36.25V22.25H49.393c-3.86,0-6.99,3.131-6.99,6.991v302.497c0,3.861,3.13,6.991,6.99,6.991h156.486c-5.479-6.498-9.701-14.087-12.271-22.398H71.854z"/>
            <path d="M121.107,45.13h71.494c1.658,0,3.004-1.345,3.004-3.004V12.374c0-1.659-1.346-3.004-3.004-3.004h-11.31c-1.788-5.439-6.9-9.37-12.938-9.37h-23c-6.037,0-11.149,3.931-12.938,9.37h-11.309c-1.66,0-3.004,1.345-3.004,3.004v29.752C118.104,43.785,119.447,45.13,121.107,45.13z"/>
            <path d="M93.521,76.156v16c0,1.381,1.119,2.5,2.5,2.5h16c1.381,0,2.5-1.119,2.5-2.5v-16c0-1.381-1.119-2.5-2.5-2.5h-16C94.641,73.656,93.521,74.775,93.521,76.156z"/>
            <path d="M220.188,76.156c0-1.381-1.119-2.5-2.5-2.5h-80.334c-1.381,0-2.5,1.119-2.5,2.5v16c0,1.381,1.119,2.5,2.5,2.5h80.334c1.381,0,2.5-1.119,2.5-2.5V76.156z"/>
            <path d="M114.521,126.156c0-1.381-1.119-2.5-2.5-2.5h-16c-1.381,0-2.5,1.119-2.5,2.5v16c0,1.381,1.119,2.5,2.5,2.5h16c1.381,0,2.5-1.119,2.5-2.5V126.156z"/>
            <path d="M220.188,126.156c0-1.381-1.119-2.5-2.5-2.5h-80.334c-1.381,0-2.5,1.119-2.5,2.5v16c0,1.381,1.119,2.5,2.5,2.5h80.334c1.381,0,2.5-1.119,2.5-2.5V126.156z"/>
            <path d="M114.521,176.156c0-1.381-1.119-2.5-2.5-2.5h-16c-1.381,0-2.5,1.119-2.5,2.5v16c0,1.381,1.119,2.5,2.5,2.5h16c1.381,0,2.5-1.119,2.5-2.5V176.156z"/>
            <path d="M220.188,176.156c0-1.381-1.119-2.5-2.5-2.5h-80.334c-1.381,0-2.5,1.119-2.5,2.5v16c0,1.381,1.119,2.5,2.5,2.5h80.334c1.381,0,2.5-1.119,2.5-2.5V176.156z"/>
            <path d="M112.021,223.656h-16c-1.381,0-2.5,1.119-2.5,2.5v16c0,1.381,1.119,2.5,2.5,2.5h16c1.381,0,2.5-1.119,2.5-2.5v-16C114.521,224.775,113.402,223.656,112.021,223.656z"/>
            <path d="M217.688,223.656h-80.334c-1.381,0-2.5,1.119-2.5,2.5v16c0,1.381,1.119,2.5,2.5,2.5h80.334c1.644,0,2.5-1.564,2.5-2.5v-16C220.188,224.775,219.068,223.656,217.688,223.656z"/>
            <path d="M254.986,243.156c-29.951,0-54.232,24.281-54.232,54.232c0,29.952,24.281,54.232,54.232,54.232c29.953,0,54.232-24.28,54.232-54.232C309.219,267.438,284.939,243.156,254.986,243.156z M280.29,290.198l-24.988,24.988c-1.464,1.464-3.384,2.197-5.303,2.197s-3.839-0.732-5.303-2.196l-15.012-15.011c-2.929-2.929-2.929-7.678-0.001-10.607c2.93-2.929,7.677-2.929,10.607,0l9.708,9.708l19.685-19.685c2.929-2.929,7.678-2.929,10.606,0C283.219,282.52,283.219,287.269,280.29,290.198z"/>
        </g>
    </symbol>
</svg>